  0
SECTION
  2
HEADER
  9
$ACADVER
  1
AC1009
  9
$INSUNITS
 70
     1
  0
ENDSEC
  0
SECTION
  2
TABLES
  0
TABLE
  2
LAYER
 70
     8
  0
LAYER
  2
0
 62
     7
 70
0
  6
CONTINUOUS
  0
LAYER
  2
1
 62
     1
 70
0
  6
CONTINUOUS
  0
LAYER
  2
2
 62
     2
 70
0
  6
CONTINUOUS
  0
LAYER
  2
3
 62
     3
 70
0
  6
CONTINUOUS
  0
LAYER
  2
4
 62
     4
 70
0
  6
CONTINUOUS
  0
LAYER
  2
5
 62
     5
 70
0
  6
CONTINUOUS
  0
LAYER
  2
6
 62
     6
 70
0
  6
CONTINUOUS
  0
LAYER
  2
7
 62
     7
 70
0
  6
CONTINUOUS
  0
ENDTAB
  0
TABLE
  2
STYLE
 70
     1
  0
STYLE
 70
     0
  2
STANDARD
  3
TXT
 40
0.00
 41
1.00
 42
1.00
 50
0.00
 71
     0
  0
ENDTAB
  0
ENDSEC
  0
SECTION
  2
BLOCKS
  0
BLOCK
  8
0
  2
EPAD
 70
0
 10
0.0
 20
0.0
  0
POLYLINE
  8
0
 66
1
 70
1
 40
0.5
 41
0.5
  0
VERTEX
  8
0
 10
-0.25
 20
0.0
 42
1.0
  0
VERTEX
  8
0
 10
0.25
 20
0.0
 42
1.0
  0
SEQEND
  8
0
  0
ENDBLK
  8
0
  0
BLOCK
  8
0
  2
RPAD
 70
0
 10
0.0
 20
0.0
  0
TRACE
  8
0
 10
-0.5
 20
-0.5
 11
-0.5
 21
0.5
 12
0.5
 22
-0.5
 13
0.5
 23
0.5
  0
ENDBLK
  8
0
  0
ENDSEC
0
SECTION
2
ENTITIES
0
POLYLINE
8
0
66
1
40
0.016000
41
0.016000
0
VERTEX
8
0
10
1.250000
20
-0.350000
0
VERTEX
8
0
10
0.800000
20
-0.350000
0
SEQEND
8
0
0
TEXT
8
0
10
0.850000
20
-0.332000
40
0.080000
41
1.000000
1
D1
0
POLYLINE
8
0
66
1
40
0.016000
41
0.016000
0
VERTEX
8
0
10
1.250000
20
-0.450000
0
VERTEX
8
0
10
0.800000
20
-0.450000
0
SEQEND
8
0
0
TEXT
8
0
10
0.850000
20
-0.432000
40
0.080000
41
1.000000
1
D2
0
POLYLINE
8
0
66
1
40
0.016000
41
0.016000
0
VERTEX
8
0
10
1.250000
20
-0.550000
0
VERTEX
8
0
10
0.800000
20
-0.550000
0
SEQEND
8
0
0
TEXT
8
0
10
0.850000
20
-0.532000
40
0.080000
41
1.000000
1
D3
0
POLYLINE
8
0
66
1
40
0.016000
41
0.016000
0
VERTEX
8
0
10
1.250000
20
-0.650000
0
VERTEX
8
0
10
0.800000
20
-0.650000
0
SEQEND
8
0
0
TEXT
8
0
10
0.850000
20
-0.632000
40
0.080000
41
1.000000
1
D4
0
POLYLINE
8
0
66
1
40
0.016000
41
0.016000
0
VERTEX
8
0
10
1.250000
20
-0.850000
0
VERTEX
8
0
10
0.800000
20
-0.850000
0
SEQEND
8
0
0
TEXT
8
0
10
0.850000
20
-0.832000
40
0.080000
41
1.000000
1
D6
0
POLYLINE
8
0
66
1
40
0.016000
41
0.016000
0
VERTEX
8
0
10
1.250000
20
-0.950000
0
VERTEX
8
0
10
0.800000
20
-0.950000
0
SEQEND
8
0
0
TEXT
8
0
10
0.850000
20
-0.932000
40
0.080000
41
1.000000
1
D7
0
POLYLINE
8
0
66
1
40
0.016000
41
0.016000
0
VERTEX
8
0
10
1.250000
20
-1.050000
0
VERTEX
8
0
10
0.800000
20
-1.050000
0
SEQEND
8
0
0
TEXT
8
0
10
0.850000
20
-1.032000
40
0.080000
41
1.000000
1
D8
0
POLYLINE
8
0
66
1
40
0.016000
41
0.016000
0
VERTEX
8
0
10
-1.650000
20
1.000000
0
VERTEX
8
0
10
-2.100000
20
1.000000
0
SEQEND
8
0
0
POLYLINE
8
0
66
1
40
0.016000
41
0.016000
0
VERTEX
8
0
10
-1.650000
20
0.700000
0
VERTEX
8
0
10
-2.100000
20
0.700000
0
SEQEND
8
0
0
POLYLINE
8
0
66
1
40
0.016000
41
0.016000
0
VERTEX
8
0
10
-2.100000
20
1.000000
0
VERTEX
8
0
10
-2.100000
20
0.700000
0
SEQEND
8
0
0
POLYLINE
8
0
66
1
40
0.016000
41
0.016000
0
VERTEX
8
0
10
-2.100000
20
1.000000
0
VERTEX
8
0
10
-2.100000
20
1.300000
0
SEQEND
8
0
0
POLYLINE
8
0
66
1
40
0.016000
41
0.016000
0
VERTEX
8
0
10
-1.650000
20
1.300000
0
VERTEX
8
0
10
-2.100000
20
1.300000
0
SEQEND
8
0
0
POLYLINE
8
0
66
1
40
0.016000
41
0.016000
0
VERTEX
8
0
10
-1.250000
20
1.300000
0
VERTEX
8
0
10
0.050000
20
1.300000
0
SEQEND
8
0
0
TEXT
8
0
10
-0.250000
20
1.318000
40
0.080000
41
1.000000
1
D1
0
POLYLINE
8
0
66
1
40
0.016000
41
0.016000
0
VERTEX
8
0
10
-1.250000
20
1.000000
0
VERTEX
8
0
10
0.050000
20
1.000000
0
SEQEND
8
0
0
TEXT
8
0
10
-0.250000
20
1.018000
40
0.080000
41
1.000000
1
D2
0
POLYLINE
8
0
66
1
40
0.016000
41
0.016000
0
VERTEX
8
0
10
-1.250000
20
0.700000
0
VERTEX
8
0
10
0.050000
20
0.700000
0
SEQEND
8
0
0
TEXT
8
0
10
-0.250000
20
0.718000
40
0.080000
41
1.000000
1
D3
0
POLYLINE
8
0
66
1
40
0.016000
41
0.016000
0
VERTEX
8
0
10
-1.650000
20
0.400000
0
VERTEX
8
0
10
-2.100000
20
0.400000
0
SEQEND
8
0
0
POLYLINE
8
0
66
1
40
0.016000
41
0.016000
0
VERTEX
8
0
10
-2.100000
20
0.700000
0
VERTEX
8
0
10
-2.100000
20
0.400000
0
SEQEND
8
0
0
POLYLINE
8
0
66
1
40
0.016000
41
0.016000
0
VERTEX
8
0
10
-1.250000
20
0.400000
0
VERTEX
8
0
10
0.050000
20
0.400000
0
SEQEND
8
0
0
TEXT
8
0
10
-0.250000
20
0.418000
40
0.080000
41
1.000000
1
D4
0
POLYLINE
8
0
66
1
40
0.016000
41
0.016000
0
VERTEX
8
0
10
0.950000
20
-1.850000
0
VERTEX
8
0
10
2.200000
20
-1.850000
0
SEQEND
8
0
0
TEXT
8
0
10
1.900000
20
-1.832000
40
0.080000
41
1.000000
1
D6
0
POLYLINE
8
0
66
1
40
0.016000
41
0.016000
0
VERTEX
8
0
10
0.250000
20
-2.850000
0
VERTEX
8
0
10
0.250000
20
-2.250000
0
SEQEND
8
0
0
POLYLINE
8
0
66
1
40
0.016000
41
0.016000
0
VERTEX
8
0
10
0.450000
20
-1.850000
0
VERTEX
8
0
10
0.250000
20
-1.850000
0
VERTEX
8
0
10
0.250000
20
-2.250000
0
SEQEND
8
0
0
POLYLINE
8
0
66
1
40
0.016000
41
0.016000
0
VERTEX
8
0
10
0.450000
20
-2.250000
0
VERTEX
8
0
10
0.250000
20
-2.250000
0
SEQEND
8
0
0
POLYLINE
8
0
66
1
40
0.016000
41
0.016000
0
VERTEX
8
0
10
0.950000
20
-2.250000
0
VERTEX
8
0
10
2.200000
20
-2.250000
0
SEQEND
8
0
0
TEXT
8
0
10
1.900000
20
-2.232000
40
0.080000
41
1.000000
1
D7
0
POLYLINE
8
0
66
1
40
0.016000
41
0.016000
0
VERTEX
8
0
10
1.250000
20
-0.750000
0
VERTEX
8
0
10
-0.750000
20
-0.750000
0
SEQEND
8
0
0
TEXT
8
0
10
0.850000
20
-0.732000
40
0.080000
41
1.000000
1
D5
0
POLYLINE
8
0
66
1
40
0.016000
41
0.016000
0
VERTEX
8
0
10
-1.250000
20
-0.750000
0
VERTEX
8
0
10
-1.300000
20
-0.750000
0
VERTEX
8
0
10
-1.700000
20
-0.750000
0
SEQEND
8
0
0
POLYLINE
8
0
66
1
40
0.016000
41
0.016000
0
VERTEX
8
0
10
-2.150000
20
-1.150000
0
VERTEX
8
0
10
-2.100000
20
-1.150000
0
VERTEX
8
0
10
-2.100000
20
-1.050000
0
SEQEND
8
0
0
POLYLINE
8
0
66
1
40
0.016000
41
0.016000
0
VERTEX
8
0
10
-2.100000
20
2.750000
0
VERTEX
8
0
10
-2.100000
20
2.550000
0
SEQEND
8
0
0
POLYLINE
8
0
66
1
40
0.016000
41
0.016000
0
VERTEX
8
0
10
-2.100000
20
2.050000
0
VERTEX
8
0
10
-2.100000
20
1.300000
0
SEQEND
8
0
0
POLYLINE
8
0
66
1
40
0.016000
41
0.016000
0
VERTEX
8
0
10
-2.100000
20
-1.050000
0
VERTEX
8
0
10
-2.100000
20
-1.050000
0
SEQEND
8
0
0
POLYLINE
8
0
66
1
40
0.016000
41
0.016000
0
VERTEX
8
0
10
-1.750000
20
-1.050000
0
VERTEX
8
0
10
-2.100000
20
-1.050000
0
SEQEND
8
0
0
POLYLINE
8
0
66
1
40
0.016000
41
0.016000
0
VERTEX
8
0
10
-2.100000
20
-2.250000
0
VERTEX
8
0
10
-2.100000
20
-1.900000
0
VERTEX
8
0
10
-2.100000
20
-1.350000
0
VERTEX
8
0
10
-2.150000
20
-1.350000
0
SEQEND
8
0
0
POLYLINE
8
0
66
1
40
0.016000
41
0.016000
0
VERTEX
8
0
10
-1.750000
20
-1.550000
0
VERTEX
8
0
10
-1.750000
20
-1.900000
0
VERTEX
8
0
10
-2.100000
20
-1.900000
0
SEQEND
8
0
0
POLYLINE
8
0
66
1
40
0.016000
41
0.016000
0
VERTEX
8
0
10
-2.100000
20
0.400000
0
VERTEX
8
0
10
-2.100000
20
0.100000
0
VERTEX
8
0
10
-2.100000
20
-0.450000
0
SEQEND
8
0
0
POLYLINE
8
0
66
1
40
0.016000
41
0.016000
0
VERTEX
8
0
10
-1.650000
20
0.100000
0
VERTEX
8
0
10
-2.100000
20
0.100000
0
SEQEND
8
0
0
POLYLINE
8
0
66
1
40
0.016000
41
0.016000
0
VERTEX
8
0
10
-1.250000
20
0.100000
0
VERTEX
8
0
10
0.050000
20
0.100000
0
SEQEND
8
0
0
TEXT
8
0
10
-0.250000
20
0.118000
40
0.080000
41
1.000000
1
D8
0
POLYLINE
8
0
66
1
40
0.016000
41
0.016000
0
VERTEX
8
0
10
1.450000
20
-1.150000
0
VERTEX
8
0
10
2.850000
20
-1.150000
0
VERTEX
8
0
10
2.850000
20
1.550000
0
VERTEX
8
0
10
1.450000
20
1.550000
0
VERTEX
8
0
10
1.450000
20
-1.150000
0
SEQEND
8
0
0
POLYLINE
8
0
66
1
40
0.016000
41
0.016000
0
VERTEX
8
0
10
1.250000
20
1.150000
0
VERTEX
8
0
10
1.450000
20
1.150000
0
SEQEND
8
0
0
TEXT
8
0
10
1.500000
20
1.110000
40
0.080000
41
1.000000
1
XTAL2
0
TEXT
8
0
10
1.190000
20
1.160000
40
0.080000
41
1.000000
1
18
0
POLYLINE
8
0
66
1
40
0.016000
41
0.016000
0
VERTEX
8
0
10
1.450000
20
1.480000
0
VERTEX
8
0
10
1.480000
20
1.450000
0
VERTEX
8
0
10
1.450000
20
1.420000
0
VERTEX
8
0
10
1.450000
20
1.480000
0
SEQEND
8
0
0
POLYLINE
8
0
66
1
40
0.016000
41
0.016000
0
VERTEX
8
0
10
1.250000
20
1.450000
0
VERTEX
8
0
10
1.450000
20
1.450000
0
SEQEND
8
0
0
TEXT
8
0
10
1.500000
20
1.410000
40
0.080000
41
1.000000
1
XTAL1
0
TEXT
8
0
10
1.190000
20
1.460000
40
0.080000
41
1.000000
1
19
0
POLYLINE
8
0
66
1
40
0.016000
41
0.016000
0
VERTEX
8
0
10
1.250000
20
0.150000
0
VERTEX
8
0
10
1.450000
20
0.150000
0
SEQEND
8
0
0
TEXT
8
0
10
1.500000
20
0.110000
40
0.080000
41
1.000000
1
ALE
0
TEXT
8
0
10
1.190000
20
0.160000
40
0.080000
41
1.000000
1
30
0
POLYLINE
8
0
66
1
40
0.016000
41
0.016000
0
VERTEX
8
0
10
1.250000
20
0.050000
0
VERTEX
8
0
10
1.450000
20
0.050000
0
SEQEND
8
0
0
TEXT
8
0
10
1.500000
20
0.010000
40
0.080000
41
1.000000
1
EA
0
TEXT
8
0
10
1.190000
20
0.060000
40
0.080000
41
1.000000
1
31
0
POLYLINE
8
0
66
1
40
0.016000
41
0.016000
0
VERTEX
8
0
10
1.250000
20
0.250000
0
VERTEX
8
0
10
1.450000
20
0.250000
0
SEQEND
8
0
0
TEXT
8
0
10
1.500000
20
0.210000
40
0.080000
41
1.000000
1
PSEN
0
TEXT
8
0
10
1.190000
20
0.260000
40
0.080000
41
1.000000
1
29
0
POLYLINE
8
0
66
1
40
0.016000
41
0.016000
0
VERTEX
8
0
10
1.250000
20
0.750000
0
VERTEX
8
0
10
1.450000
20
0.750000
0
SEQEND
8
0
0
TEXT
8
0
10
1.500000
20
0.710000
40
0.080000
41
1.000000
1
RST
0
TEXT
8
0
10
1.270000
20
0.760000
40
0.080000
41
1.000000
1
9
0
POLYLINE
8
0
66
1
40
0.016000
41
0.016000
0
VERTEX
8
0
10
3.050000
20
1.450000
0
VERTEX
8
0
10
2.850000
20
1.450000
0
SEQEND
8
0
0
TEXT
8
0
10
2.160000
20
1.410000
40
0.080000
41
1.000000
1
P0.0/AD0
0
TEXT
8
0
10
2.950000
20
1.460000
40
0.080000
41
1.000000
1
39
0
POLYLINE
8
0
66
1
40
0.016000
41
0.016000
0
VERTEX
8
0
10
3.050000
20
1.350000
0
VERTEX
8
0
10
2.850000
20
1.350000
0
SEQEND
8
0
0
TEXT
8
0
10
2.160000
20
1.310000
40
0.080000
41
1.000000
1
P0.1/AD1
0
TEXT
8
0
10
2.950000
20
1.360000
40
0.080000
41
1.000000
1
38
0
POLYLINE
8
0
66
1
40
0.016000
41
0.016000
0
VERTEX
8
0
10
3.050000
20
1.250000
0
VERTEX
8
0
10
2.850000
20
1.250000
0
SEQEND
8
0
0
TEXT
8
0
10
2.160000
20
1.210000
40
0.080000
41
1.000000
1
P0.2/AD2
0
TEXT
8
0
10
2.950000
20
1.260000
40
0.080000
41
1.000000
1
37
0
POLYLINE
8
0
66
1
40
0.016000
41
0.016000
0
VERTEX
8
0
10
3.050000
20
1.150000
0
VERTEX
8
0
10
2.850000
20
1.150000
0
SEQEND
8
0
0
TEXT
8
0
10
2.160000
20
1.110000
40
0.080000
41
1.000000
1
P0.3/AD3
0
TEXT
8
0
10
2.950000
20
1.160000
40
0.080000
41
1.000000
1
36
0
POLYLINE
8
0
66
1
40
0.016000
41
0.016000
0
VERTEX
8
0
10
3.050000
20
1.050000
0
VERTEX
8
0
10
2.850000
20
1.050000
0
SEQEND
8
0
0
TEXT
8
0
10
2.160000
20
1.010000
40
0.080000
41
1.000000
1
P0.4/AD4
0
TEXT
8
0
10
2.950000
20
1.060000
40
0.080000
41
1.000000
1
35
0
POLYLINE
8
0
66
1
40
0.016000
41
0.016000
0
VERTEX
8
0
10
3.050000
20
0.950000
0
VERTEX
8
0
10
2.850000
20
0.950000
0
SEQEND
8
0
0
TEXT
8
0
10
2.160000
20
0.910000
40
0.080000
41
1.000000
1
P0.5/AD5
0
TEXT
8
0
10
2.950000
20
0.960000
40
0.080000
41
1.000000
1
34
0
POLYLINE
8
0
66
1
40
0.016000
41
0.016000
0
VERTEX
8
0
10
3.050000
20
0.850000
0
VERTEX
8
0
10
2.850000
20
0.850000
0
SEQEND
8
0
0
TEXT
8
0
10
2.160000
20
0.810000
40
0.080000
41
1.000000
1
P0.6/AD6
0
TEXT
8
0
10
2.950000
20
0.860000
40
0.080000
41
1.000000
1
33
0
POLYLINE
8
0
66
1
40
0.016000
41
0.016000
0
VERTEX
8
0
10
3.050000
20
0.750000
0
VERTEX
8
0
10
2.850000
20
0.750000
0
SEQEND
8
0
0
TEXT
8
0
10
2.160000
20
0.710000
40
0.080000
41
1.000000
1
P0.7/AD7
0
TEXT
8
0
10
2.950000
20
0.760000
40
0.080000
41
1.000000
1
32
0
POLYLINE
8
0
66
1
40
0.016000
41
0.016000
0
VERTEX
8
0
10
1.250000
20
-0.350000
0
VERTEX
8
0
10
1.450000
20
-0.350000
0
SEQEND
8
0
0
TEXT
8
0
10
1.500000
20
-0.390000
40
0.080000
41
1.000000
1
P1.0
0
TEXT
8
0
10
1.270000
20
-0.340000
40
0.080000
41
1.000000
1
1
0
POLYLINE
8
0
66
1
40
0.016000
41
0.016000
0
VERTEX
8
0
10
1.250000
20
-0.450000
0
VERTEX
8
0
10
1.450000
20
-0.450000
0
SEQEND
8
0
0
TEXT
8
0
10
1.500000
20
-0.490000
40
0.080000
41
1.000000
1
P1.1
0
TEXT
8
0
10
1.270000
20
-0.440000
40
0.080000
41
1.000000
1
2
0
POLYLINE
8
0
66
1
40
0.016000
41
0.016000
0
VERTEX
8
0
10
1.250000
20
-0.550000
0
VERTEX
8
0
10
1.450000
20
-0.550000
0
SEQEND
8
0
0
TEXT
8
0
10
1.500000
20
-0.590000
40
0.080000
41
1.000000
1
P1.2
0
TEXT
8
0
10
1.270000
20
-0.540000
40
0.080000
41
1.000000
1
3
0
POLYLINE
8
0
66
1
40
0.016000
41
0.016000
0
VERTEX
8
0
10
1.250000
20
-0.650000
0
VERTEX
8
0
10
1.450000
20
-0.650000
0
SEQEND
8
0
0
TEXT
8
0
10
1.500000
20
-0.690000
40
0.080000
41
1.000000
1
P1.3
0
TEXT
8
0
10
1.270000
20
-0.640000
40
0.080000
41
1.000000
1
4
0
POLYLINE
8
0
66
1
40
0.016000
41
0.016000
0
VERTEX
8
0
10
1.250000
20
-0.750000
0
VERTEX
8
0
10
1.450000
20
-0.750000
0
SEQEND
8
0
0
TEXT
8
0
10
1.500000
20
-0.790000
40
0.080000
41
1.000000
1
P1.4
0
TEXT
8
0
10
1.270000
20
-0.740000
40
0.080000
41
1.000000
1
5
0
POLYLINE
8
0
66
1
40
0.016000
41
0.016000
0
VERTEX
8
0
10
1.250000
20
-0.850000
0
VERTEX
8
0
10
1.450000
20
-0.850000
0
SEQEND
8
0
0
TEXT
8
0
10
1.500000
20
-0.890000
40
0.080000
41
1.000000
1
P1.5
0
TEXT
8
0
10
1.270000
20
-0.840000
40
0.080000
41
1.000000
1
6
0
POLYLINE
8
0
66
1
40
0.016000
41
0.016000
0
VERTEX
8
0
10
1.250000
20
-0.950000
0
VERTEX
8
0
10
1.450000
20
-0.950000
0
SEQEND
8
0
0
TEXT
8
0
10
1.500000
20
-0.990000
40
0.080000
41
1.000000
1
P1.6
0
TEXT
8
0
10
1.270000
20
-0.940000
40
0.080000
41
1.000000
1
7
0
POLYLINE
8
0
66
1
40
0.016000
41
0.016000
0
VERTEX
8
0
10
1.250000
20
-1.050000
0
VERTEX
8
0
10
1.450000
20
-1.050000
0
SEQEND
8
0
0
TEXT
8
0
10
1.500000
20
-1.090000
40
0.080000
41
1.000000
1
P1.7
0
TEXT
8
0
10
1.270000
20
-1.040000
40
0.080000
41
1.000000
1
8
0
POLYLINE
8
0
66
1
40
0.016000
41
0.016000
0
VERTEX
8
0
10
3.050000
20
-0.350000
0
VERTEX
8
0
10
2.850000
20
-0.350000
0
SEQEND
8
0
0
TEXT
8
0
10
2.160000
20
-0.390000
40
0.080000
41
1.000000
1
P3.0/RXD
0
TEXT
8
0
10
2.950000
20
-0.340000
40
0.080000
41
1.000000
1
10
0
POLYLINE
8
0
66
1
40
0.016000
41
0.016000
0
VERTEX
8
0
10
3.050000
20
-0.450000
0
VERTEX
8
0
10
2.850000
20
-0.450000
0
SEQEND
8
0
0
TEXT
8
0
10
2.160000
20
-0.490000
40
0.080000
41
1.000000
1
P3.1/TXD
0
TEXT
8
0
10
2.950000
20
-0.440000
40
0.080000
41
1.000000
1
11
0
POLYLINE
8
0
66
1
40
0.016000
41
0.016000
0
VERTEX
8
0
10
3.050000
20
-0.550000
0
VERTEX
8
0
10
2.850000
20
-0.550000
0
SEQEND
8
0
0
TEXT
8
0
10
2.080000
20
-0.590000
40
0.080000
41
1.000000
1
P3.2/INT0
0
TEXT
8
0
10
2.950000
20
-0.540000
40
0.080000
41
1.000000
1
12
0
POLYLINE
8
0
66
1
40
0.016000
41
0.016000
0
VERTEX
8
0
10
3.050000
20
-0.650000
0
VERTEX
8
0
10
2.850000
20
-0.650000
0
SEQEND
8
0
0
TEXT
8
0
10
2.080000
20
-0.690000
40
0.080000
41
1.000000
1
P3.3/INT1
0
TEXT
8
0
10
2.950000
20
-0.640000
40
0.080000
41
1.000000
1
13
0
POLYLINE
8
0
66
1
40
0.016000
41
0.016000
0
VERTEX
8
0
10
3.050000
20
-0.750000
0
VERTEX
8
0
10
2.850000
20
-0.750000
0
SEQEND
8
0
0
TEXT
8
0
10
2.240000
20
-0.790000
40
0.080000
41
1.000000
1
P3.4/T0
0
TEXT
8
0
10
2.950000
20
-0.740000
40
0.080000
41
1.000000
1
14
0
POLYLINE
8
0
66
1
40
0.016000
41
0.016000
0
VERTEX
8
0
10
3.050000
20
-1.050000
0
VERTEX
8
0
10
2.850000
20
-1.050000
0
SEQEND
8
0
0
TEXT
8
0
10
2.240000
20
-1.090000
40
0.080000
41
1.000000
1
P3.7/RD
0
TEXT
8
0
10
2.950000
20
-1.040000
40
0.080000
41
1.000000
1
17
0
POLYLINE
8
0
66
1
40
0.016000
41
0.016000
0
VERTEX
8
0
10
3.050000
20
-0.950000
0
VERTEX
8
0
10
2.850000
20
-0.950000
0
SEQEND
8
0
0
TEXT
8
0
10
2.240000
20
-0.990000
40
0.080000
41
1.000000
1
P3.6/WR
0
TEXT
8
0
10
2.950000
20
-0.940000
40
0.080000
41
1.000000
1
16
0
POLYLINE
8
0
66
1
40
0.016000
41
0.016000
0
VERTEX
8
0
10
3.050000
20
-0.850000
0
VERTEX
8
0
10
2.850000
20
-0.850000
0
SEQEND
8
0
0
TEXT
8
0
10
2.240000
20
-0.890000
40
0.080000
41
1.000000
1
P3.5/T1
0
TEXT
8
0
10
2.950000
20
-0.840000
40
0.080000
41
1.000000
1
15
0
POLYLINE
8
0
66
1
40
0.016000
41
0.016000
0
VERTEX
8
0
10
3.050000
20
-0.150000
0
VERTEX
8
0
10
2.850000
20
-0.150000
0
SEQEND
8
0
0
TEXT
8
0
10
2.160000
20
-0.190000
40
0.080000
41
1.000000
1
P2.7/A15
0
TEXT
8
0
10
2.950000
20
-0.140000
40
0.080000
41
1.000000
1
28
0
POLYLINE
8
0
66
1
40
0.016000
41
0.016000
0
VERTEX
8
0
10
3.050000
20
0.550000
0
VERTEX
8
0
10
2.850000
20
0.550000
0
SEQEND
8
0
0
TEXT
8
0
10
2.240000
20
0.510000
40
0.080000
41
1.000000
1
P2.0/A8
0
TEXT
8
0
10
2.950000
20
0.560000
40
0.080000
41
1.000000
1
21
0
POLYLINE
8
0
66
1
40
0.016000
41
0.016000
0
VERTEX
8
0
10
3.050000
20
0.450000
0
VERTEX
8
0
10
2.850000
20
0.450000
0
SEQEND
8
0
0
TEXT
8
0
10
2.240000
20
0.410000
40
0.080000
41
1.000000
1
P2.1/A9
0
TEXT
8
0
10
2.950000
20
0.460000
40
0.080000
41
1.000000
1
22
0
POLYLINE
8
0
66
1
40
0.016000
41
0.016000
0
VERTEX
8
0
10
3.050000
20
0.350000
0
VERTEX
8
0
10
2.850000
20
0.350000
0
SEQEND
8
0
0
TEXT
8
0
10
2.160000
20
0.310000
40
0.080000
41
1.000000
1
P2.2/A10
0
TEXT
8
0
10
2.950000
20
0.360000
40
0.080000
41
1.000000
1
23
0
POLYLINE
8
0
66
1
40
0.016000
41
0.016000
0
VERTEX
8
0
10
3.050000
20
0.250000
0
VERTEX
8
0
10
2.850000
20
0.250000
0
SEQEND
8
0
0
TEXT
8
0
10
2.160000
20
0.210000
40
0.080000
41
1.000000
1
P2.3/A11
0
TEXT
8
0
10
2.950000
20
0.260000
40
0.080000
41
1.000000
1
24
0
POLYLINE
8
0
66
1
40
0.016000
41
0.016000
0
VERTEX
8
0
10
3.050000
20
0.150000
0
VERTEX
8
0
10
2.850000
20
0.150000
0
SEQEND
8
0
0
TEXT
8
0
10
2.160000
20
0.110000
40
0.080000
41
1.000000
1
P2.4/A12
0
TEXT
8
0
10
2.950000
20
0.160000
40
0.080000
41
1.000000
1
25
0
POLYLINE
8
0
66
1
40
0.016000
41
0.016000
0
VERTEX
8
0
10
3.050000
20
0.050000
0
VERTEX
8
0
10
2.850000
20
0.050000
0
SEQEND
8
0
0
TEXT
8
0
10
2.160000
20
0.010000
40
0.080000
41
1.000000
1
P2.5/A13
0
TEXT
8
0
10
2.950000
20
0.060000
40
0.080000
41
1.000000
1
26
0
POLYLINE
8
0
66
1
40
0.016000
41
0.016000
0
VERTEX
8
0
10
3.050000
20
-0.050000
0
VERTEX
8
0
10
2.850000
20
-0.050000
0
SEQEND
8
0
0
TEXT
8
0
10
2.160000
20
-0.090000
40
0.080000
41
1.000000
1
P2.6/A14
0
TEXT
8
0
10
2.950000
20
-0.040000
40
0.080000
41
1.000000
1
27
0
TEXT
8
0
10
1.442000
20
1.573000
40
0.120000
41
0.666667
1
U1
0
TEXT
8
0
10
1.442000
20
-1.248000
40
0.080000
41
1.000000
1
AT89C51
0
CIRCLE
8
0
10
-1.450000
20
1.300000
40
0.120000
0
POLYLINE
8
0
66
1
40
0.015000
41
0.015000
0
VERTEX
8
0
10
-1.400000
20
1.350000
0
VERTEX
8
0
10
-1.400000
20
1.250000
0
SEQEND
8
0
0
POLYLINE
8
0
66
1
40
0.016000
41
0.016000
0
VERTEX
8
0
10
-1.550000
20
1.300000
0
VERTEX
8
0
10
-1.480000
20
1.300000
0
SEQEND
8
0
0
POLYLINE
8
0
66
1
40
0.016000
41
0.016000
0
VERTEX
8
0
10
-1.400000
20
1.300000
0
VERTEX
8
0
10
-1.350000
20
1.300000
0
SEQEND
8
0
0
POLYLINE
8
0
66
1
40
0.015000
41
0.015000
0
VERTEX
8
0
10
-1.400000
20
1.300000
0
VERTEX
8
0
10
-1.480000
20
1.240000
0
VERTEX
8
0
10
-1.480000
20
1.360000
0
VERTEX
8
0
10
-1.400000
20
1.300000
0
SEQEND
8
0
0
POLYLINE
8
0
66
1
40
0.016000
41
0.016000
0
VERTEX
8
0
10
-1.650000
20
1.300000
0
VERTEX
8
0
10
-1.550000
20
1.300000
0
SEQEND
8
0
0
POLYLINE
8
0
66
1
40
0.016000
41
0.016000
0
VERTEX
8
0
10
-1.250000
20
1.300000
0
VERTEX
8
0
10
-1.350000
20
1.300000
0
SEQEND
8
0
0
TEXT
8
0
10
-1.728000
20
1.343000
40
0.120000
41
0.666667
1
D1
0
TEXT
8
0
10
-1.278000
20
1.332000
40
0.080000
41
1.000000
1
LED-WHITE
0
CIRCLE
8
0
10
-1.450000
20
1.000000
40
0.120000
0
POLYLINE
8
0
66
1
40
0.015000
41
0.015000
0
VERTEX
8
0
10
-1.400000
20
1.050000
0
VERTEX
8
0
10
-1.400000
20
0.950000
0
SEQEND
8
0
0
POLYLINE
8
0
66
1
40
0.016000
41
0.016000
0
VERTEX
8
0
10
-1.550000
20
1.000000
0
VERTEX
8
0
10
-1.480000
20
1.000000
0
SEQEND
8
0
0
POLYLINE
8
0
66
1
40
0.016000
41
0.016000
0
VERTEX
8
0
10
-1.400000
20
1.000000
0
VERTEX
8
0
10
-1.350000
20
1.000000
0
SEQEND
8
0
0
POLYLINE
8
0
66
1
40
0.015000
41
0.015000
0
VERTEX
8
0
10
-1.400000
20
1.000000
0
VERTEX
8
0
10
-1.480000
20
0.940000
0
VERTEX
8
0
10
-1.480000
20
1.060000
0
VERTEX
8
0
10
-1.400000
20
1.000000
0
SEQEND
8
0
0
POLYLINE
8
0
66
1
40
0.016000
41
0.016000
0
VERTEX
8
0
10
-1.650000
20
1.000000
0
VERTEX
8
0
10
-1.550000
20
1.000000
0
SEQEND
8
0
0
POLYLINE
8
0
66
1
40
0.016000
41
0.016000
0
VERTEX
8
0
10
-1.250000
20
1.000000
0
VERTEX
8
0
10
-1.350000
20
1.000000
0
SEQEND
8
0
0
TEXT
8
0
10
-1.728000
20
1.043000
40
0.120000
41
0.666667
1
D2
0
TEXT
8
0
10
-1.278000
20
1.032000
40
0.080000
41
1.000000
1
LED-WHITE
0
CIRCLE
8
0
10
-1.450000
20
0.700000
40
0.120000
0
POLYLINE
8
0
66
1
40
0.015000
41
0.015000
0
VERTEX
8
0
10
-1.400000
20
0.750000
0
VERTEX
8
0
10
-1.400000
20
0.650000
0
SEQEND
8
0
0
POLYLINE
8
0
66
1
40
0.016000
41
0.016000
0
VERTEX
8
0
10
-1.550000
20
0.700000
0
VERTEX
8
0
10
-1.480000
20
0.700000
0
SEQEND
8
0
0
POLYLINE
8
0
66
1
40
0.016000
41
0.016000
0
VERTEX
8
0
10
-1.400000
20
0.700000
0
VERTEX
8
0
10
-1.350000
20
0.700000
0
SEQEND
8
0
0
POLYLINE
8
0
66
1
40
0.015000
41
0.015000
0
VERTEX
8
0
10
-1.400000
20
0.700000
0
VERTEX
8
0
10
-1.480000
20
0.640000
0
VERTEX
8
0
10
-1.480000
20
0.760000
0
VERTEX
8
0
10
-1.400000
20
0.700000
0
SEQEND
8
0
0
POLYLINE
8
0
66
1
40
0.016000
41
0.016000
0
VERTEX
8
0
10
-1.650000
20
0.700000
0
VERTEX
8
0
10
-1.550000
20
0.700000
0
SEQEND
8
0
0
POLYLINE
8
0
66
1
40
0.016000
41
0.016000
0
VERTEX
8
0
10
-1.250000
20
0.700000
0
VERTEX
8
0
10
-1.350000
20
0.700000
0
SEQEND
8
0
0
TEXT
8
0
10
-1.728000
20
0.743000
40
0.120000
41
0.666667
1
D3
0
TEXT
8
0
10
-1.278000
20
0.732000
40
0.080000
41
1.000000
1
LED-WHITE
0
CIRCLE
8
0
10
-1.450000
20
0.400000
40
0.120000
0
POLYLINE
8
0
66
1
40
0.015000
41
0.015000
0
VERTEX
8
0
10
-1.400000
20
0.450000
0
VERTEX
8
0
10
-1.400000
20
0.350000
0
SEQEND
8
0
0
POLYLINE
8
0
66
1
40
0.016000
41
0.016000
0
VERTEX
8
0
10
-1.550000
20
0.400000
0
VERTEX
8
0
10
-1.480000
20
0.400000
0
SEQEND
8
0
0
POLYLINE
8
0
66
1
40
0.016000
41
0.016000
0
VERTEX
8
0
10
-1.400000
20
0.400000
0
VERTEX
8
0
10
-1.350000
20
0.400000
0
SEQEND
8
0
0
POLYLINE
8
0
66
1
40
0.015000
41
0.015000
0
VERTEX
8
0
10
-1.400000
20
0.400000
0
VERTEX
8
0
10
-1.480000
20
0.340000
0
VERTEX
8
0
10
-1.480000
20
0.460000
0
VERTEX
8
0
10
-1.400000
20
0.400000
0
SEQEND
8
0
0
POLYLINE
8
0
66
1
40
0.016000
41
0.016000
0
VERTEX
8
0
10
-1.650000
20
0.400000
0
VERTEX
8
0
10
-1.550000
20
0.400000
0
SEQEND
8
0
0
POLYLINE
8
0
66
1
40
0.016000
41
0.016000
0
VERTEX
8
0
10
-1.250000
20
0.400000
0
VERTEX
8
0
10
-1.350000
20
0.400000
0
SEQEND
8
0
0
TEXT
8
0
10
-1.728000
20
0.443000
40
0.120000
41
0.666667
1
D4
0
TEXT
8
0
10
-1.278000
20
0.432000
40
0.080000
41
1.000000
1
LED-RED
0
CIRCLE
8
0
10
0.800000
20
-0.350000
40
0.020000
0
CIRCLE
8
0
10
0.800000
20
-0.450000
40
0.020000
0
CIRCLE
8
0
10
0.800000
20
-0.550000
40
0.020000
0
CIRCLE
8
0
10
0.800000
20
-0.650000
40
0.020000
0
CIRCLE
8
0
10
0.800000
20
-0.850000
40
0.020000
0
CIRCLE
8
0
10
0.800000
20
-0.950000
40
0.020000
0
CIRCLE
8
0
10
0.800000
20
-1.050000
40
0.020000
0
CIRCLE
8
0
10
-2.100000
20
1.000000
40
0.020000
0
CIRCLE
8
0
10
-2.100000
20
0.700000
40
0.020000
0
POLYLINE
8
0
66
1
40
0.016000
41
0.016000
0
VERTEX
8
0
10
-2.150000
20
2.850000
0
VERTEX
8
0
10
-2.100000
20
2.950000
0
VERTEX
8
0
10
-2.050000
20
2.850000
0
VERTEX
8
0
10
-2.150000
20
2.850000
0
SEQEND
8
0
0
POLYLINE
8
0
66
1
40
0.016000
41
0.016000
0
VERTEX
8
0
10
-2.100000
20
2.750000
0
VERTEX
8
0
10
-2.100000
20
2.950000
0
SEQEND
8
0
0
CIRCLE
8
0
10
-2.100000
20
1.300000
40
0.020000
0
CIRCLE
8
0
10
0.050000
20
1.300000
40
0.020000
0
CIRCLE
8
0
10
0.050000
20
1.000000
40
0.020000
0
CIRCLE
8
0
10
0.050000
20
0.700000
40
0.020000
0
CIRCLE
8
0
10
-2.100000
20
0.400000
40
0.020000
0
CIRCLE
8
0
10
0.050000
20
0.400000
40
0.020000
0
CIRCLE
8
0
10
0.820000
20
-1.850000
40
0.030000
0
CIRCLE
8
0
10
0.580000
20
-1.850000
40
0.030000
0
POLYLINE
8
0
66
1
40
0.016000
41
0.016000
0
VERTEX
8
0
10
0.560000
20
-1.770000
0
VERTEX
8
0
10
0.840000
20
-1.770000
0
SEQEND
8
0
0
POLYLINE
8
0
66
1
40
0.016000
41
0.016000
0
VERTEX
8
0
10
0.620000
20
-1.770000
0
VERTEX
8
0
10
0.780000
20
-1.770000
0
VERTEX
8
0
10
0.780000
20
-1.720000
0
VERTEX
8
0
10
0.620000
20
-1.720000
0
VERTEX
8
0
10
0.620000
20
-1.770000
0
SEQEND
8
0
0
POLYLINE
8
0
66
1
40
0.016000
41
0.016000
0
VERTEX
8
0
10
0.450000
20
-1.850000
0
VERTEX
8
0
10
0.550000
20
-1.850000
0
SEQEND
8
0
0
POLYLINE
8
0
66
1
40
0.016000
41
0.016000
0
VERTEX
8
0
10
0.950000
20
-1.850000
0
VERTEX
8
0
10
0.850000
20
-1.850000
0
SEQEND
8
0
0
CIRCLE
8
0
10
0.900000
20
-1.750000
40
0.040000
0
POLYLINE
8
0
66
1
40
0.008000
41
0.008000
0
VERTEX
8
0
10
0.900000
20
-1.770000
0
VERTEX
8
0
10
0.900000
20
-1.730000
0
SEQEND
8
0
0
POLYLINE
8
0
66
1
40
0.008000
41
0.008000
0
VERTEX
8
0
10
0.900000
20
-1.770000
0
VERTEX
8
0
10
0.890000
20
-1.760000
0
SEQEND
8
0
0
POLYLINE
8
0
66
1
40
0.008000
41
0.008000
0
VERTEX
8
0
10
0.900000
20
-1.770000
0
VERTEX
8
0
10
0.910000
20
-1.760000
0
SEQEND
8
0
0
POLYLINE
8
0
66
1
40
0.008000
41
0.008000
0
VERTEX
8
0
10
0.890000
20
-1.740000
0
VERTEX
8
0
10
0.900000
20
-1.730000
0
VERTEX
8
0
10
0.910000
20
-1.740000
0
SEQEND
8
0
0
CIRCLE
8
0
10
2.200000
20
-1.850000
40
0.020000
0
POLYLINE
8
0
66
1
40
0.016000
41
0.016000
0
VERTEX
8
0
10
0.250000
20
-2.850000
0
VERTEX
8
0
10
0.250000
20
-2.950000
0
SEQEND
8
0
0
POLYLINE
8
0
66
1
40
0.016000
41
0.016000
0
VERTEX
8
0
10
0.150000
20
-2.950000
0
VERTEX
8
0
10
0.350000
20
-2.950000
0
SEQEND
8
0
0
POLYLINE
8
0
66
1
40
0.016000
41
0.016000
0
VERTEX
8
0
10
0.200000
20
-3.000000
0
VERTEX
8
0
10
0.300000
20
-3.000000
0
SEQEND
8
0
0
POLYLINE
8
0
66
1
40
0.016000
41
0.016000
0
VERTEX
8
0
10
0.240000
20
-3.050000
0
VERTEX
8
0
10
0.260000
20
-3.050000
0
SEQEND
8
0
0
CIRCLE
8
0
10
0.820000
20
-2.250000
40
0.030000
0
CIRCLE
8
0
10
0.580000
20
-2.250000
40
0.030000
0
POLYLINE
8
0
66
1
40
0.016000
41
0.016000
0
VERTEX
8
0
10
0.560000
20
-2.170000
0
VERTEX
8
0
10
0.840000
20
-2.170000
0
SEQEND
8
0
0
POLYLINE
8
0
66
1
40
0.016000
41
0.016000
0
VERTEX
8
0
10
0.620000
20
-2.170000
0
VERTEX
8
0
10
0.780000
20
-2.170000
0
VERTEX
8
0
10
0.780000
20
-2.120000
0
VERTEX
8
0
10
0.620000
20
-2.120000
0
VERTEX
8
0
10
0.620000
20
-2.170000
0
SEQEND
8
0
0
POLYLINE
8
0
66
1
40
0.016000
41
0.016000
0
VERTEX
8
0
10
0.450000
20
-2.250000
0
VERTEX
8
0
10
0.550000
20
-2.250000
0
SEQEND
8
0
0
POLYLINE
8
0
66
1
40
0.016000
41
0.016000
0
VERTEX
8
0
10
0.950000
20
-2.250000
0
VERTEX
8
0
10
0.850000
20
-2.250000
0
SEQEND
8
0
0
CIRCLE
8
0
10
0.900000
20
-2.150000
40
0.040000
0
POLYLINE
8
0
66
1
40
0.008000
41
0.008000
0
VERTEX
8
0
10
0.900000
20
-2.170000
0
VERTEX
8
0
10
0.900000
20
-2.130000
0
SEQEND
8
0
0
POLYLINE
8
0
66
1
40
0.008000
41
0.008000
0
VERTEX
8
0
10
0.900000
20
-2.170000
0
VERTEX
8
0
10
0.890000
20
-2.160000
0
SEQEND
8
0
0
POLYLINE
8
0
66
1
40
0.008000
41
0.008000
0
VERTEX
8
0
10
0.900000
20
-2.170000
0
VERTEX
8
0
10
0.910000
20
-2.160000
0
SEQEND
8
0
0
POLYLINE
8
0
66
1
40
0.008000
41
0.008000
0
VERTEX
8
0
10
0.890000
20
-2.140000
0
VERTEX
8
0
10
0.900000
20
-2.130000
0
VERTEX
8
0
10
0.910000
20
-2.140000
0
SEQEND
8
0
0
CIRCLE
8
0
10
0.250000
20
-2.250000
40
0.020000
0
CIRCLE
8
0
10
2.200000
20
-2.250000
40
0.020000
0
POLYLINE
8
0
66
1
40
0.016000
41
0.016000
0
VERTEX
8
0
10
-2.400000
20
-1.400000
0
VERTEX
8
0
10
-2.385132
20
-1.399194
0
VERTEX
8
0
10
-2.370586
20
-1.396836
0
VERTEX
8
0
10
-2.342813
20
-1.387813
0
VERTEX
8
0
10
-2.317383
20
-1.373633
0
VERTEX
8
0
10
-2.295000
20
-1.355000
0
VERTEX
8
0
10
-2.276367
20
-1.332617
0
VERTEX
8
0
10
-2.262187
20
-1.307187
0
VERTEX
8
0
10
-2.253164
20
-1.279414
0
VERTEX
8
0
10
-2.250806
20
-1.264868
0
VERTEX
8
0
10
-2.250000
20
-1.250000
0
VERTEX
8
0
10
-2.250806
20
-1.235132
0
VERTEX
8
0
10
-2.253164
20
-1.220586
0
VERTEX
8
0
10
-2.262187
20
-1.192813
0
VERTEX
8
0
10
-2.276367
20
-1.167383
0
VERTEX
8
0
10
-2.295000
20
-1.145000
0
VERTEX
8
0
10
-2.317383
20
-1.126367
0
VERTEX
8
0
10
-2.342813
20
-1.112187
0
VERTEX
8
0
10
-2.370586
20
-1.103164
0
VERTEX
8
0
10
-2.385132
20
-1.100806
0
VERTEX
8
0
10
-2.400000
20
-1.100000
0
VERTEX
8
0
10
-2.400000
20
-1.400000
0
SEQEND
8
0
0
POLYLINE
8
0
66
1
40
0.016000
41
0.016000
0
VERTEX
8
0
10
-2.250000
20
-1.150000
0
VERTEX
8
0
10
-2.290000
20
-1.150000
0
SEQEND
8
0
0
POLYLINE
8
0
66
1
40
0.016000
41
0.016000
0
VERTEX
8
0
10
-2.250000
20
-1.350000
0
VERTEX
8
0
10
-2.290000
20
-1.350000
0
SEQEND
8
0
0
POLYLINE
8
0
66
1
40
0.016000
41
0.016000
0
VERTEX
8
0
10
-2.150000
20
-1.150000
0
VERTEX
8
0
10
-2.250000
20
-1.150000
0
SEQEND
8
0
0
POLYLINE
8
0
66
1
40
0.016000
41
0.016000
0
VERTEX
8
0
10
-2.150000
20
-1.350000
0
VERTEX
8
0
10
-2.250000
20
-1.350000
0
SEQEND
8
0
0
TEXT
8
0
10
-2.758000
20
-1.227000
40
0.120000
41
0.666667
1
BUZ1
0
TEXT
8
0
10
-2.758000
20
-1.398000
40
0.080000
41
1.000000
1
BUZZER
0
POLYLINE
8
0
66
1
40
0.016000
41
0.016000
0
VERTEX
8
0
10
-1.150000
20
-0.790000
0
VERTEX
8
0
10
-0.850000
20
-0.790000
0
VERTEX
8
0
10
-0.850000
20
-0.710000
0
VERTEX
8
0
10
-1.150000
20
-0.710000
0
VERTEX
8
0
10
-1.150000
20
-0.790000
0
SEQEND
8
0
0
POLYLINE
8
0
66
1
40
0.016000
41
0.016000
0
VERTEX
8
0
10
-1.250000
20
-0.750000
0
VERTEX
8
0
10
-1.150000
20
-0.750000
0
SEQEND
8
0
0
POLYLINE
8
0
66
1
40
0.016000
41
0.016000
0
VERTEX
8
0
10
-0.750000
20
-0.750000
0
VERTEX
8
0
10
-0.850000
20
-0.750000
0
SEQEND
8
0
0
TEXT
8
0
10
-1.158000
20
-0.687000
40
0.120000
41
0.666667
1
R1
0
TEXT
8
0
10
-1.158000
20
-0.888000
40
0.080000
41
1.000000
1
1k
0
POLYLINE
8
0
66
1
40
0.016000
41
0.016000
0
VERTEX
8
0
10
-1.790000
20
-1.450000
0
VERTEX
8
0
10
-1.710000
20
-1.450000
0
VERTEX
8
0
10
-1.710000
20
-1.150000
0
VERTEX
8
0
10
-1.790000
20
-1.150000
0
VERTEX
8
0
10
-1.790000
20
-1.450000
0
SEQEND
8
0
0
POLYLINE
8
0
66
1
40
0.016000
41
0.016000
0
VERTEX
8
0
10
-1.750000
20
-1.050000
0
VERTEX
8
0
10
-1.750000
20
-1.150000
0
SEQEND
8
0
0
POLYLINE
8
0
66
1
40
0.016000
41
0.016000
0
VERTEX
8
0
10
-1.750000
20
-1.550000
0
VERTEX
8
0
10
-1.750000
20
-1.450000
0
SEQEND
8
0
0
TEXT
8
0
10
-1.652000
20
-1.277000
40
0.120000
41
0.666667
1
R2
0
TEXT
8
0
10
-1.652000
20
-1.382000
40
0.080000
41
1.000000
1
10k
0
POLYLINE
8
0
66
1
40
0.016000
41
0.016000
0
VERTEX
8
0
10
-2.100000
20
-2.250000
0
VERTEX
8
0
10
-2.100000
20
-2.350000
0
SEQEND
8
0
0
POLYLINE
8
0
66
1
40
0.016000
41
0.016000
0
VERTEX
8
0
10
-2.200000
20
-2.350000
0
VERTEX
8
0
10
-2.000000
20
-2.350000
0
SEQEND
8
0
0
POLYLINE
8
0
66
1
40
0.016000
41
0.016000
0
VERTEX
8
0
10
-2.150000
20
-2.400000
0
VERTEX
8
0
10
-2.050000
20
-2.400000
0
SEQEND
8
0
0
POLYLINE
8
0
66
1
40
0.016000
41
0.016000
0
VERTEX
8
0
10
-2.110000
20
-2.450000
0
VERTEX
8
0
10
-2.090000
20
-2.450000
0
SEQEND
8
0
0
CIRCLE
8
0
10
-1.300000
20
-0.750000
40
0.020000
0
POLYLINE
8
0
66
1
40
0.016000
41
0.016000
0
VERTEX
8
0
10
-1.950000
20
-0.700000
0
VERTEX
8
0
10
-2.000000
20
-0.600000
0
VERTEX
8
0
10
-2.050000
20
-0.650000
0
VERTEX
8
0
10
-1.950000
20
-0.700000
0
SEQEND
8
0
0
POLYLINE
8
0
66
1
40
0.016000
41
0.016000
0
VERTEX
8
0
10
-1.950000
20
-0.900000
0
VERTEX
8
0
10
-1.900000
20
-0.900000
0
VERTEX
8
0
10
-1.900000
20
-0.600000
0
VERTEX
8
0
10
-1.950000
20
-0.600000
0
VERTEX
8
0
10
-1.950000
20
-0.900000
0
SEQEND
8
0
0
POLYLINE
8
0
66
1
40
0.016000
41
0.016000
0
VERTEX
8
0
10
-1.950000
20
-0.800000
0
VERTEX
8
0
10
-2.100000
20
-0.950000
0
SEQEND
8
0
0
POLYLINE
8
0
66
1
40
0.016000
41
0.016000
0
VERTEX
8
0
10
-2.100000
20
-0.550000
0
VERTEX
8
0
10
-2.030000
20
-0.620000
0
SEQEND
8
0
0
POLYLINE
8
0
66
1
40
0.016000
41
0.016000
0
VERTEX
8
0
10
-1.900000
20
-0.750000
0
VERTEX
8
0
10
-1.800000
20
-0.750000
0
SEQEND
8
0
0
POLYLINE
8
0
66
1
40
0.016000
41
0.016000
0
VERTEX
8
0
10
-1.700000
20
-0.750000
0
VERTEX
8
0
10
-1.800000
20
-0.750000
0
SEQEND
8
0
0
POLYLINE
8
0
66
1
40
0.016000
41
0.016000
0
VERTEX
8
0
10
-2.100000
20
-1.050000
0
VERTEX
8
0
10
-2.100000
20
-0.950000
0
SEQEND
8
0
0
POLYLINE
8
0
66
1
40
0.016000
41
0.016000
0
VERTEX
8
0
10
-2.100000
20
-0.450000
0
VERTEX
8
0
10
-2.100000
20
-0.550000
0
SEQEND
8
0
0
TEXT
8
0
10
-2.341996
20
-0.677000
40
0.120000
41
0.666667
1
Q1
0
TEXT
8
0
10
-2.341996
20
-0.848000
40
0.080000
41
1.000000
1
PNP
0
CIRCLE
8
0
10
-2.100000
20
2.420000
40
0.020000
0
CIRCLE
8
0
10
-2.100000
20
2.180000
40
0.020000
0
POLYLINE
8
0
66
1
40
0.016000
41
0.016000
0
VERTEX
8
0
10
-2.100000
20
2.150000
0
VERTEX
8
0
10
-2.100000
20
2.160000
0
SEQEND
8
0
0
POLYLINE
8
0
66
1
40
0.016000
41
0.016000
0
VERTEX
8
0
10
-2.100000
20
2.440000
0
VERTEX
8
0
10
-2.100000
20
2.450000
0
SEQEND
8
0
0
POLYLINE
8
0
66
1
40
0.016000
41
0.016000
0
VERTEX
8
0
10
-2.110000
20
2.200000
0
VERTEX
8
0
10
-2.130000
20
2.410000
0
SEQEND
8
0
0
POLYLINE
8
0
66
1
40
0.016000
41
0.016000
0
VERTEX
8
0
10
-2.100000
20
2.050000
0
VERTEX
8
0
10
-2.100000
20
2.150000
0
SEQEND
8
0
0
POLYLINE
8
0
66
1
40
0.016000
41
0.016000
0
VERTEX
8
0
10
-2.100000
20
2.550000
0
VERTEX
8
0
10
-2.100000
20
2.450000
0
SEQEND
8
0
0
CIRCLE
8
0
10
-2.200000
20
2.450000
40
0.040000
0
POLYLINE
8
0
66
1
40
0.008000
41
0.008000
0
VERTEX
8
0
10
-2.180000
20
2.450000
0
VERTEX
8
0
10
-2.190000
20
2.440000
0
SEQEND
8
0
0
POLYLINE
8
0
66
1
40
0.008000
41
0.008000
0
VERTEX
8
0
10
-2.180000
20
2.450000
0
VERTEX
8
0
10
-2.190000
20
2.460000
0
SEQEND
8
0
0
POLYLINE
8
0
66
1
40
0.008000
41
0.008000
0
VERTEX
8
0
10
-2.180000
20
2.450000
0
VERTEX
8
0
10
-2.220000
20
2.450000
0
SEQEND
8
0
0
CIRCLE
8
0
10
-2.200000
20
2.550000
40
0.040000
0
POLYLINE
8
0
66
1
40
0.008000
41
0.008000
0
VERTEX
8
0
10
-2.220000
20
2.550000
0
VERTEX
8
0
10
-2.210000
20
2.540000
0
SEQEND
8
0
0
POLYLINE
8
0
66
1
40
0.008000
41
0.008000
0
VERTEX
8
0
10
-2.220000
20
2.550000
0
VERTEX
8
0
10
-2.210000
20
2.560000
0
SEQEND
8
0
0
POLYLINE
8
0
66
1
40
0.008000
41
0.008000
0
VERTEX
8
0
10
-2.220000
20
2.550000
0
VERTEX
8
0
10
-2.180000
20
2.550000
0
SEQEND
8
0
0
CIRCLE
8
0
10
-2.100000
20
-1.050000
40
0.020000
0
CIRCLE
8
0
10
-2.100000
20
-1.900000
40
0.020000
0
CIRCLE
8
0
10
-1.450000
20
0.100000
40
0.120000
0
POLYLINE
8
0
66
1
40
0.015000
41
0.015000
0
VERTEX
8
0
10
-1.400000
20
0.150000
0
VERTEX
8
0
10
-1.400000
20
0.050000
0
SEQEND
8
0
0
POLYLINE
8
0
66
1
40
0.016000
41
0.016000
0
VERTEX
8
0
10
-1.550000
20
0.100000
0
VERTEX
8
0
10
-1.480000
20
0.100000
0
SEQEND
8
0
0
POLYLINE
8
0
66
1
40
0.016000
41
0.016000
0
VERTEX
8
0
10
-1.400000
20
0.100000
0
VERTEX
8
0
10
-1.350000
20
0.100000
0
SEQEND
8
0
0
POLYLINE
8
0
66
1
40
0.015000
41
0.015000
0
VERTEX
8
0
10
-1.400000
20
0.100000
0
VERTEX
8
0
10
-1.480000
20
0.040000
0
VERTEX
8
0
10
-1.480000
20
0.160000
0
VERTEX
8
0
10
-1.400000
20
0.100000
0
SEQEND
8
0
0
POLYLINE
8
0
66
1
40
0.016000
41
0.016000
0
VERTEX
8
0
10
-1.650000
20
0.100000
0
VERTEX
8
0
10
-1.550000
20
0.100000
0
SEQEND
8
0
0
POLYLINE
8
0
66
1
40
0.016000
41
0.016000
0
VERTEX
8
0
10
-1.250000
20
0.100000
0
VERTEX
8
0
10
-1.350000
20
0.100000
0
SEQEND
8
0
0
TEXT
8
0
10
-1.728000
20
0.143000
40
0.120000
41
0.666667
1
D5
0
TEXT
8
0
10
-1.278000
20
0.132000
40
0.080000
41
1.000000
1
LED-RED
0
CIRCLE
8
0
10
-2.100000
20
0.100000
40
0.020000
0
CIRCLE
8
0
10
0.050000
20
0.100000
40
0.020000
0
ENDSEC
0
EOF

